<mxfile host="Electron" agent="Mozilla/5.0 (Windows NT 10.0; Win64; x64) AppleWebKit/537.36 (KHTML, like Gecko) draw.io/26.1.1 Chrome/132.0.6834.210 Electron/34.3.3 Safari/537.36" version="26.1.1">
  <diagram id="1e8tG-erhfEZfUEwSb-L" name="第 1 页">
    <mxGraphModel dx="2553" dy="1157" grid="1" gridSize="10" guides="1" tooltips="1" connect="1" arrows="1" fold="1" page="1" pageScale="1" pageWidth="827" pageHeight="1169" math="0" shadow="0">
      <root>
        <mxCell id="0" />
        <mxCell id="1" parent="0" />
        <mxCell id="Ldo9_z_D3-BIF1nlgRQ--3" value="" style="edgeStyle=orthogonalEdgeStyle;rounded=0;orthogonalLoop=1;jettySize=auto;html=1;" parent="1" source="Ldo9_z_D3-BIF1nlgRQ--1" target="Ldo9_z_D3-BIF1nlgRQ--2" edge="1">
          <mxGeometry relative="1" as="geometry" />
        </mxCell>
        <mxCell id="Ldo9_z_D3-BIF1nlgRQ--1" value="&lt;font style=&quot;font-size: 24px;&quot;&gt;随机森林运行原理图&lt;/font&gt;" style="rounded=0;whiteSpace=wrap;html=1;fillColor=#dae8fc;strokeColor=#6c8ebf;" parent="1" vertex="1">
          <mxGeometry x="585" y="10" width="270" height="60" as="geometry" />
        </mxCell>
        <mxCell id="Ldo9_z_D3-BIF1nlgRQ--77" style="rounded=0;orthogonalLoop=1;jettySize=auto;html=1;exitX=0.5;exitY=1;exitDx=0;exitDy=0;entryX=0.5;entryY=0;entryDx=0;entryDy=0;endArrow=none;startFill=0;" parent="1" source="Ldo9_z_D3-BIF1nlgRQ--2" target="Ldo9_z_D3-BIF1nlgRQ--6" edge="1">
          <mxGeometry relative="1" as="geometry" />
        </mxCell>
        <mxCell id="Ldo9_z_D3-BIF1nlgRQ--78" style="rounded=0;orthogonalLoop=1;jettySize=auto;html=1;exitX=0.5;exitY=1;exitDx=0;exitDy=0;endArrow=none;startFill=0;entryX=0.5;entryY=0;entryDx=0;entryDy=0;" parent="1" source="Ldo9_z_D3-BIF1nlgRQ--2" target="Ldo9_z_D3-BIF1nlgRQ--4" edge="1">
          <mxGeometry relative="1" as="geometry" />
        </mxCell>
        <mxCell id="Ldo9_z_D3-BIF1nlgRQ--79" style="rounded=0;orthogonalLoop=1;jettySize=auto;html=1;exitX=0.5;exitY=1;exitDx=0;exitDy=0;endArrow=none;startFill=0;entryX=0.5;entryY=0;entryDx=0;entryDy=0;" parent="1" source="Ldo9_z_D3-BIF1nlgRQ--2" target="Ldo9_z_D3-BIF1nlgRQ--53" edge="1">
          <mxGeometry relative="1" as="geometry" />
        </mxCell>
        <mxCell id="Ldo9_z_D3-BIF1nlgRQ--80" style="rounded=0;orthogonalLoop=1;jettySize=auto;html=1;exitX=0.5;exitY=1;exitDx=0;exitDy=0;endArrow=none;startFill=0;entryX=0.5;entryY=0;entryDx=0;entryDy=0;" parent="1" source="Ldo9_z_D3-BIF1nlgRQ--2" target="Ldo9_z_D3-BIF1nlgRQ--66" edge="1">
          <mxGeometry relative="1" as="geometry" />
        </mxCell>
        <mxCell id="Ldo9_z_D3-BIF1nlgRQ--2" value="&lt;font style=&quot;font-size: 24px;&quot;&gt;输入&lt;/font&gt;" style="whiteSpace=wrap;html=1;rounded=0;fillColor=#fff2cc;strokeColor=#d6b656;" parent="1" vertex="1">
          <mxGeometry x="661" y="120" width="120" height="60" as="geometry" />
        </mxCell>
        <mxCell id="Ldo9_z_D3-BIF1nlgRQ--27" style="rounded=0;orthogonalLoop=1;jettySize=auto;html=1;exitX=0.5;exitY=1;exitDx=0;exitDy=0;endArrow=none;startFill=0;" parent="1" source="Ldo9_z_D3-BIF1nlgRQ--4" edge="1">
          <mxGeometry relative="1" as="geometry">
            <mxPoint x="419.00000000000045" y="400" as="targetPoint" />
          </mxGeometry>
        </mxCell>
        <mxCell id="Ldo9_z_D3-BIF1nlgRQ--46" style="rounded=0;orthogonalLoop=1;jettySize=auto;html=1;exitX=0.5;exitY=1;exitDx=0;exitDy=0;endArrow=none;startFill=0;" parent="1" source="Ldo9_z_D3-BIF1nlgRQ--4" edge="1">
          <mxGeometry relative="1" as="geometry">
            <mxPoint x="620" y="400" as="targetPoint" />
          </mxGeometry>
        </mxCell>
        <mxCell id="Ldo9_z_D3-BIF1nlgRQ--4" value="&lt;font style=&quot;font-size: 24px;&quot;&gt;决策树B&lt;/font&gt;" style="whiteSpace=wrap;html=1;rounded=0;fillColor=#d5e8d4;strokeColor=#82b366;" parent="1" vertex="1">
          <mxGeometry x="460" y="290" width="120" height="60" as="geometry" />
        </mxCell>
        <mxCell id="Ldo9_z_D3-BIF1nlgRQ--23" value="" style="rounded=0;orthogonalLoop=1;jettySize=auto;html=1;exitX=0.5;exitY=1;exitDx=0;exitDy=0;endArrow=none;startFill=0;" parent="1" source="Ldo9_z_D3-BIF1nlgRQ--6" edge="1">
          <mxGeometry relative="1" as="geometry">
            <mxPoint x="220" y="400" as="targetPoint" />
          </mxGeometry>
        </mxCell>
        <mxCell id="Ldo9_z_D3-BIF1nlgRQ--25" style="rounded=0;orthogonalLoop=1;jettySize=auto;html=1;exitX=0.5;exitY=1;exitDx=0;exitDy=0;entryX=0.5;entryY=0;entryDx=0;entryDy=0;endArrow=none;startFill=0;" parent="1" source="Ldo9_z_D3-BIF1nlgRQ--6" edge="1">
          <mxGeometry relative="1" as="geometry">
            <mxPoint x="30" y="400" as="targetPoint" />
          </mxGeometry>
        </mxCell>
        <mxCell id="Ldo9_z_D3-BIF1nlgRQ--6" value="&lt;font style=&quot;font-size: 24px;&quot;&gt;决策树A&lt;/font&gt;" style="whiteSpace=wrap;html=1;rounded=0;fillColor=#d5e8d4;strokeColor=#82b366;" parent="1" vertex="1">
          <mxGeometry x="70" y="290" width="120" height="60" as="geometry" />
        </mxCell>
        <mxCell id="Ldo9_z_D3-BIF1nlgRQ--34" value="" style="rounded=0;orthogonalLoop=1;jettySize=auto;html=1;endArrow=none;startFill=0;entryX=0.5;entryY=0;entryDx=0;entryDy=0;" parent="1" edge="1">
          <mxGeometry relative="1" as="geometry">
            <mxPoint x="30" y="460" as="sourcePoint" />
            <mxPoint x="90" y="525" as="targetPoint" />
          </mxGeometry>
        </mxCell>
        <mxCell id="Ldo9_z_D3-BIF1nlgRQ--36" style="rounded=0;orthogonalLoop=1;jettySize=auto;html=1;exitX=0.5;exitY=1;exitDx=0;exitDy=0;entryX=0.5;entryY=0;entryDx=0;entryDy=0;endArrow=none;startFill=0;" parent="1" edge="1">
          <mxGeometry relative="1" as="geometry">
            <mxPoint x="30" y="460" as="sourcePoint" />
            <mxPoint x="-30" y="525" as="targetPoint" />
          </mxGeometry>
        </mxCell>
        <mxCell id="Ldo9_z_D3-BIF1nlgRQ--39" value="" style="rounded=0;orthogonalLoop=1;jettySize=auto;html=1;endArrow=none;startFill=0;entryX=0.5;entryY=0;entryDx=0;entryDy=0;" parent="1" edge="1">
          <mxGeometry relative="1" as="geometry">
            <mxPoint x="220" y="460" as="sourcePoint" />
            <mxPoint x="280" y="525" as="targetPoint" />
          </mxGeometry>
        </mxCell>
        <mxCell id="Ldo9_z_D3-BIF1nlgRQ--40" style="rounded=0;orthogonalLoop=1;jettySize=auto;html=1;exitX=0.5;exitY=1;exitDx=0;exitDy=0;endArrow=none;startFill=0;entryX=0.5;entryY=0;entryDx=0;entryDy=0;" parent="1" edge="1">
          <mxGeometry relative="1" as="geometry">
            <mxPoint x="220" y="460" as="sourcePoint" />
            <mxPoint x="170" y="525" as="targetPoint" />
          </mxGeometry>
        </mxCell>
        <mxCell id="Ldo9_z_D3-BIF1nlgRQ--47" value="" style="rounded=0;orthogonalLoop=1;jettySize=auto;html=1;endArrow=none;startFill=0;entryX=0.5;entryY=0;entryDx=0;entryDy=0;" parent="1" edge="1">
          <mxGeometry relative="1" as="geometry">
            <mxPoint x="419.00000000000045" y="460" as="sourcePoint" />
            <mxPoint x="469.00000000000045" y="525" as="targetPoint" />
          </mxGeometry>
        </mxCell>
        <mxCell id="Ldo9_z_D3-BIF1nlgRQ--48" style="rounded=0;orthogonalLoop=1;jettySize=auto;html=1;exitX=0.5;exitY=1;exitDx=0;exitDy=0;endArrow=none;startFill=0;entryX=0.5;entryY=0;entryDx=0;entryDy=0;" parent="1" edge="1">
          <mxGeometry relative="1" as="geometry">
            <mxPoint x="419.00000000000045" y="460" as="sourcePoint" />
            <mxPoint x="359" y="525" as="targetPoint" />
          </mxGeometry>
        </mxCell>
        <mxCell id="Ldo9_z_D3-BIF1nlgRQ--49" value="" style="rounded=0;orthogonalLoop=1;jettySize=auto;html=1;endArrow=none;startFill=0;entryX=0.5;entryY=0;entryDx=0;entryDy=0;" parent="1" edge="1">
          <mxGeometry relative="1" as="geometry">
            <mxPoint x="620" y="460" as="sourcePoint" />
            <mxPoint x="680" y="525" as="targetPoint" />
          </mxGeometry>
        </mxCell>
        <mxCell id="Ldo9_z_D3-BIF1nlgRQ--50" style="rounded=0;orthogonalLoop=1;jettySize=auto;html=1;exitX=0.5;exitY=1;exitDx=0;exitDy=0;endArrow=none;startFill=0;entryX=0.5;entryY=0;entryDx=0;entryDy=0;" parent="1" edge="1">
          <mxGeometry relative="1" as="geometry">
            <mxPoint x="620" y="460" as="sourcePoint" />
            <mxPoint x="560" y="525" as="targetPoint" />
          </mxGeometry>
        </mxCell>
        <mxCell id="Ldo9_z_D3-BIF1nlgRQ--51" style="rounded=0;orthogonalLoop=1;jettySize=auto;html=1;exitX=0.5;exitY=1;exitDx=0;exitDy=0;endArrow=none;startFill=0;" parent="1" source="Ldo9_z_D3-BIF1nlgRQ--53" edge="1">
          <mxGeometry relative="1" as="geometry">
            <mxPoint x="820" y="400" as="targetPoint" />
          </mxGeometry>
        </mxCell>
        <mxCell id="Ldo9_z_D3-BIF1nlgRQ--52" style="rounded=0;orthogonalLoop=1;jettySize=auto;html=1;exitX=0.5;exitY=1;exitDx=0;exitDy=0;endArrow=none;startFill=0;" parent="1" source="Ldo9_z_D3-BIF1nlgRQ--53" edge="1">
          <mxGeometry relative="1" as="geometry">
            <mxPoint x="1021.0000000000005" y="400" as="targetPoint" />
          </mxGeometry>
        </mxCell>
        <mxCell id="Ldo9_z_D3-BIF1nlgRQ--53" value="&lt;font style=&quot;font-size: 24px;&quot;&gt;决策树C&lt;/font&gt;" style="whiteSpace=wrap;html=1;rounded=0;fillColor=#d5e8d4;strokeColor=#82b366;" parent="1" vertex="1">
          <mxGeometry x="861" y="290" width="120" height="60" as="geometry" />
        </mxCell>
        <mxCell id="Ldo9_z_D3-BIF1nlgRQ--54" value="" style="rounded=0;orthogonalLoop=1;jettySize=auto;html=1;endArrow=none;startFill=0;entryX=0.5;entryY=0;entryDx=0;entryDy=0;" parent="1" edge="1">
          <mxGeometry relative="1" as="geometry">
            <mxPoint x="820" y="460" as="sourcePoint" />
            <mxPoint x="885" y="525" as="targetPoint" />
          </mxGeometry>
        </mxCell>
        <mxCell id="Ldo9_z_D3-BIF1nlgRQ--55" style="rounded=0;orthogonalLoop=1;jettySize=auto;html=1;exitX=0.5;exitY=1;exitDx=0;exitDy=0;endArrow=none;startFill=0;entryX=0.5;entryY=0;entryDx=0;entryDy=0;" parent="1" edge="1">
          <mxGeometry relative="1" as="geometry">
            <mxPoint x="820" y="460" as="sourcePoint" />
            <mxPoint x="760" y="525" as="targetPoint" />
          </mxGeometry>
        </mxCell>
        <mxCell id="Ldo9_z_D3-BIF1nlgRQ--57" value="" style="rounded=0;orthogonalLoop=1;jettySize=auto;html=1;endArrow=none;startFill=0;entryX=0.5;entryY=0;entryDx=0;entryDy=0;" parent="1" edge="1">
          <mxGeometry relative="1" as="geometry">
            <mxPoint x="1021.0000000000005" y="460" as="sourcePoint" />
            <mxPoint x="1091" y="525" as="targetPoint" />
          </mxGeometry>
        </mxCell>
        <mxCell id="Ldo9_z_D3-BIF1nlgRQ--58" style="rounded=0;orthogonalLoop=1;jettySize=auto;html=1;exitX=0.5;exitY=1;exitDx=0;exitDy=0;endArrow=none;startFill=0;entryX=0.5;entryY=0;entryDx=0;entryDy=0;" parent="1" edge="1">
          <mxGeometry relative="1" as="geometry">
            <mxPoint x="1021" y="460" as="sourcePoint" />
            <mxPoint x="961" y="525" as="targetPoint" />
          </mxGeometry>
        </mxCell>
        <mxCell id="Ldo9_z_D3-BIF1nlgRQ--64" style="rounded=0;orthogonalLoop=1;jettySize=auto;html=1;exitX=0.5;exitY=1;exitDx=0;exitDy=0;endArrow=none;startFill=0;" parent="1" source="Ldo9_z_D3-BIF1nlgRQ--66" edge="1">
          <mxGeometry relative="1" as="geometry">
            <mxPoint x="1240" y="400" as="targetPoint" />
          </mxGeometry>
        </mxCell>
        <mxCell id="Ldo9_z_D3-BIF1nlgRQ--65" style="rounded=0;orthogonalLoop=1;jettySize=auto;html=1;exitX=0.5;exitY=1;exitDx=0;exitDy=0;endArrow=none;startFill=0;" parent="1" source="Ldo9_z_D3-BIF1nlgRQ--66" edge="1">
          <mxGeometry relative="1" as="geometry">
            <mxPoint x="1441.0000000000005" y="400" as="targetPoint" />
          </mxGeometry>
        </mxCell>
        <mxCell id="Ldo9_z_D3-BIF1nlgRQ--66" value="&lt;font style=&quot;font-size: 24px;&quot;&gt;决策树D&lt;/font&gt;" style="whiteSpace=wrap;html=1;rounded=0;fillColor=#d5e8d4;strokeColor=#82b366;" parent="1" vertex="1">
          <mxGeometry x="1281" y="290" width="120" height="60" as="geometry" />
        </mxCell>
        <mxCell id="Ldo9_z_D3-BIF1nlgRQ--67" value="" style="rounded=0;orthogonalLoop=1;jettySize=auto;html=1;endArrow=none;startFill=0;entryX=0.5;entryY=0;entryDx=0;entryDy=0;" parent="1" edge="1">
          <mxGeometry relative="1" as="geometry">
            <mxPoint x="1240" y="460" as="sourcePoint" />
            <mxPoint x="1300" y="525" as="targetPoint" />
          </mxGeometry>
        </mxCell>
        <mxCell id="Ldo9_z_D3-BIF1nlgRQ--68" style="rounded=0;orthogonalLoop=1;jettySize=auto;html=1;exitX=0.5;exitY=1;exitDx=0;exitDy=0;endArrow=none;startFill=0;entryX=0.5;entryY=0;entryDx=0;entryDy=0;" parent="1" edge="1">
          <mxGeometry relative="1" as="geometry">
            <mxPoint x="1240" y="460" as="sourcePoint" />
            <mxPoint x="1180" y="525" as="targetPoint" />
          </mxGeometry>
        </mxCell>
        <mxCell id="Ldo9_z_D3-BIF1nlgRQ--70" value="" style="rounded=0;orthogonalLoop=1;jettySize=auto;html=1;endArrow=none;startFill=0;entryX=0.5;entryY=0;entryDx=0;entryDy=0;" parent="1" edge="1">
          <mxGeometry relative="1" as="geometry">
            <mxPoint x="1450.0000000000005" y="470" as="sourcePoint" />
            <mxPoint x="1500" y="535" as="targetPoint" />
          </mxGeometry>
        </mxCell>
        <mxCell id="Ldo9_z_D3-BIF1nlgRQ--71" style="rounded=0;orthogonalLoop=1;jettySize=auto;html=1;exitX=0.5;exitY=1;exitDx=0;exitDy=0;endArrow=none;startFill=0;entryX=0.5;entryY=0;entryDx=0;entryDy=0;" parent="1" edge="1">
          <mxGeometry relative="1" as="geometry">
            <mxPoint x="1441" y="460" as="sourcePoint" />
            <mxPoint x="1381" y="525" as="targetPoint" />
          </mxGeometry>
        </mxCell>
        <mxCell id="Ldo9_z_D3-BIF1nlgRQ--100" value="" style="edgeStyle=orthogonalEdgeStyle;rounded=0;orthogonalLoop=1;jettySize=auto;html=1;" parent="1" source="Ldo9_z_D3-BIF1nlgRQ--81" target="Ldo9_z_D3-BIF1nlgRQ--99" edge="1">
          <mxGeometry relative="1" as="geometry" />
        </mxCell>
        <mxCell id="Ldo9_z_D3-BIF1nlgRQ--81" value="&lt;font style=&quot;font-size: 24px;&quot;&gt;结合器&lt;/font&gt;" style="rounded=0;whiteSpace=wrap;html=1;fillColor=#fff2cc;strokeColor=#d6b656;" parent="1" vertex="1">
          <mxGeometry x="660" y="720" width="120" height="60" as="geometry" />
        </mxCell>
        <mxCell id="Ldo9_z_D3-BIF1nlgRQ--99" value="&lt;span style=&quot;font-size: 24px;&quot;&gt;输出&lt;/span&gt;" style="rounded=0;whiteSpace=wrap;html=1;fillColor=#fff2cc;strokeColor=#d6b656;" parent="1" vertex="1">
          <mxGeometry x="660" y="860" width="120" height="60" as="geometry" />
        </mxCell>
        <mxCell id="S6YO4O90mr0vc18Bnq2T-1" value="" style="ellipse;whiteSpace=wrap;html=1;aspect=fixed;fillColor=#ffe6cc;strokeColor=#d79b00;" parent="1" vertex="1">
          <mxGeometry x="-10" y="400" width="80" height="80" as="geometry" />
        </mxCell>
        <mxCell id="S6YO4O90mr0vc18Bnq2T-2" value="" style="ellipse;whiteSpace=wrap;html=1;aspect=fixed;fillColor=#ffe6cc;strokeColor=#d79b00;" parent="1" vertex="1">
          <mxGeometry x="180" y="400" width="80" height="80" as="geometry" />
        </mxCell>
        <mxCell id="S6YO4O90mr0vc18Bnq2T-3" value="" style="ellipse;whiteSpace=wrap;html=1;aspect=fixed;fillColor=#ffe6cc;strokeColor=#d79b00;" parent="1" vertex="1">
          <mxGeometry x="374" y="400" width="80" height="80" as="geometry" />
        </mxCell>
        <mxCell id="S6YO4O90mr0vc18Bnq2T-4" value="" style="ellipse;whiteSpace=wrap;html=1;aspect=fixed;fillColor=#ffe6cc;strokeColor=#d79b00;" parent="1" vertex="1">
          <mxGeometry x="580" y="400" width="80" height="80" as="geometry" />
        </mxCell>
        <mxCell id="S6YO4O90mr0vc18Bnq2T-7" value="" style="ellipse;whiteSpace=wrap;html=1;aspect=fixed;fillColor=#ffe6cc;strokeColor=#d79b00;" parent="1" vertex="1">
          <mxGeometry x="781" y="400" width="80" height="80" as="geometry" />
        </mxCell>
        <mxCell id="S6YO4O90mr0vc18Bnq2T-8" value="" style="ellipse;whiteSpace=wrap;html=1;aspect=fixed;fillColor=#ffe6cc;strokeColor=#d79b00;" parent="1" vertex="1">
          <mxGeometry x="981" y="400" width="80" height="80" as="geometry" />
        </mxCell>
        <mxCell id="S6YO4O90mr0vc18Bnq2T-9" value="" style="ellipse;whiteSpace=wrap;html=1;aspect=fixed;fillColor=#ffe6cc;strokeColor=#d79b00;" parent="1" vertex="1">
          <mxGeometry x="1200.5" y="400" width="80" height="80" as="geometry" />
        </mxCell>
        <mxCell id="S6YO4O90mr0vc18Bnq2T-10" value="" style="ellipse;whiteSpace=wrap;html=1;aspect=fixed;fillColor=#ffe6cc;strokeColor=#d79b00;" parent="1" vertex="1">
          <mxGeometry x="1401" y="400" width="80" height="80" as="geometry" />
        </mxCell>
        <mxCell id="S6YO4O90mr0vc18Bnq2T-11" style="edgeStyle=orthogonalEdgeStyle;rounded=0;orthogonalLoop=1;jettySize=auto;html=1;exitX=0.5;exitY=1;exitDx=0;exitDy=0;" parent="1" edge="1">
          <mxGeometry relative="1" as="geometry">
            <mxPoint x="1300" y="585" as="sourcePoint" />
            <mxPoint x="1300" y="585" as="targetPoint" />
          </mxGeometry>
        </mxCell>
        <mxCell id="Jf4zM0eVsd7dPH44PtXA-25" style="edgeStyle=orthogonalEdgeStyle;rounded=0;orthogonalLoop=1;jettySize=auto;html=1;exitX=0.5;exitY=1;exitDx=0;exitDy=0;endArrow=none;startFill=0;" edge="1" parent="1" source="Jf4zM0eVsd7dPH44PtXA-1" target="Ldo9_z_D3-BIF1nlgRQ--81">
          <mxGeometry relative="1" as="geometry" />
        </mxCell>
        <mxCell id="Jf4zM0eVsd7dPH44PtXA-1" value="" style="ellipse;whiteSpace=wrap;html=1;aspect=fixed;fillColor=#ffe6cc;strokeColor=#d79b00;" vertex="1" parent="1">
          <mxGeometry x="-60" y="525" width="65" height="65" as="geometry" />
        </mxCell>
        <mxCell id="Jf4zM0eVsd7dPH44PtXA-26" style="edgeStyle=orthogonalEdgeStyle;rounded=0;orthogonalLoop=1;jettySize=auto;html=1;exitX=0.5;exitY=1;exitDx=0;exitDy=0;entryX=0.5;entryY=0;entryDx=0;entryDy=0;endArrow=none;startFill=0;" edge="1" parent="1" source="Jf4zM0eVsd7dPH44PtXA-8" target="Ldo9_z_D3-BIF1nlgRQ--81">
          <mxGeometry relative="1" as="geometry" />
        </mxCell>
        <mxCell id="Jf4zM0eVsd7dPH44PtXA-8" value="" style="ellipse;whiteSpace=wrap;html=1;aspect=fixed;fillColor=#ffe6cc;strokeColor=#d79b00;" vertex="1" parent="1">
          <mxGeometry x="60" y="525" width="65" height="65" as="geometry" />
        </mxCell>
        <mxCell id="Jf4zM0eVsd7dPH44PtXA-27" style="edgeStyle=orthogonalEdgeStyle;rounded=0;orthogonalLoop=1;jettySize=auto;html=1;exitX=0.5;exitY=1;exitDx=0;exitDy=0;entryX=0.5;entryY=0;entryDx=0;entryDy=0;endArrow=none;startFill=0;" edge="1" parent="1" source="Jf4zM0eVsd7dPH44PtXA-9" target="Ldo9_z_D3-BIF1nlgRQ--81">
          <mxGeometry relative="1" as="geometry" />
        </mxCell>
        <mxCell id="Jf4zM0eVsd7dPH44PtXA-9" value="" style="ellipse;whiteSpace=wrap;html=1;aspect=fixed;fillColor=#ffe6cc;strokeColor=#d79b00;" vertex="1" parent="1">
          <mxGeometry x="140" y="525" width="65" height="65" as="geometry" />
        </mxCell>
        <mxCell id="Jf4zM0eVsd7dPH44PtXA-28" style="edgeStyle=orthogonalEdgeStyle;rounded=0;orthogonalLoop=1;jettySize=auto;html=1;exitX=0.5;exitY=1;exitDx=0;exitDy=0;endArrow=none;startFill=0;" edge="1" parent="1" source="Jf4zM0eVsd7dPH44PtXA-10" target="Ldo9_z_D3-BIF1nlgRQ--81">
          <mxGeometry relative="1" as="geometry" />
        </mxCell>
        <mxCell id="Jf4zM0eVsd7dPH44PtXA-10" value="" style="ellipse;whiteSpace=wrap;html=1;aspect=fixed;fillColor=#ffe6cc;strokeColor=#d79b00;" vertex="1" parent="1">
          <mxGeometry x="250" y="525" width="65" height="65" as="geometry" />
        </mxCell>
        <mxCell id="Jf4zM0eVsd7dPH44PtXA-29" style="edgeStyle=orthogonalEdgeStyle;rounded=0;orthogonalLoop=1;jettySize=auto;html=1;exitX=0.5;exitY=1;exitDx=0;exitDy=0;endArrow=none;startFill=0;" edge="1" parent="1" source="Jf4zM0eVsd7dPH44PtXA-11">
          <mxGeometry relative="1" as="geometry">
            <mxPoint x="720" y="720" as="targetPoint" />
          </mxGeometry>
        </mxCell>
        <mxCell id="Jf4zM0eVsd7dPH44PtXA-11" value="" style="ellipse;whiteSpace=wrap;html=1;aspect=fixed;fillColor=#ffe6cc;strokeColor=#d79b00;" vertex="1" parent="1">
          <mxGeometry x="330" y="525" width="65" height="65" as="geometry" />
        </mxCell>
        <mxCell id="Jf4zM0eVsd7dPH44PtXA-30" style="edgeStyle=orthogonalEdgeStyle;rounded=0;orthogonalLoop=1;jettySize=auto;html=1;exitX=0.5;exitY=1;exitDx=0;exitDy=0;endArrow=none;startFill=0;" edge="1" parent="1" source="Jf4zM0eVsd7dPH44PtXA-12" target="Ldo9_z_D3-BIF1nlgRQ--81">
          <mxGeometry relative="1" as="geometry" />
        </mxCell>
        <mxCell id="Jf4zM0eVsd7dPH44PtXA-12" value="" style="ellipse;whiteSpace=wrap;html=1;aspect=fixed;fillColor=#ffe6cc;strokeColor=#d79b00;" vertex="1" parent="1">
          <mxGeometry x="440" y="525" width="65" height="65" as="geometry" />
        </mxCell>
        <mxCell id="Jf4zM0eVsd7dPH44PtXA-32" style="edgeStyle=orthogonalEdgeStyle;rounded=0;orthogonalLoop=1;jettySize=auto;html=1;exitX=0.5;exitY=1;exitDx=0;exitDy=0;endArrow=none;startFill=0;" edge="1" parent="1" source="Jf4zM0eVsd7dPH44PtXA-15">
          <mxGeometry relative="1" as="geometry">
            <mxPoint x="720" y="720" as="targetPoint" />
          </mxGeometry>
        </mxCell>
        <mxCell id="Jf4zM0eVsd7dPH44PtXA-15" value="" style="ellipse;whiteSpace=wrap;html=1;aspect=fixed;fillColor=#ffe6cc;strokeColor=#d79b00;" vertex="1" parent="1">
          <mxGeometry x="650" y="525" width="65" height="65" as="geometry" />
        </mxCell>
        <mxCell id="Jf4zM0eVsd7dPH44PtXA-31" style="edgeStyle=orthogonalEdgeStyle;rounded=0;orthogonalLoop=1;jettySize=auto;html=1;exitX=0.5;exitY=1;exitDx=0;exitDy=0;entryX=0.5;entryY=0;entryDx=0;entryDy=0;endArrow=none;startFill=0;" edge="1" parent="1" source="Jf4zM0eVsd7dPH44PtXA-16" target="Ldo9_z_D3-BIF1nlgRQ--81">
          <mxGeometry relative="1" as="geometry" />
        </mxCell>
        <mxCell id="Jf4zM0eVsd7dPH44PtXA-16" value="" style="ellipse;whiteSpace=wrap;html=1;aspect=fixed;fillColor=#ffe6cc;strokeColor=#d79b00;" vertex="1" parent="1">
          <mxGeometry x="520" y="525" width="65" height="65" as="geometry" />
        </mxCell>
        <mxCell id="Jf4zM0eVsd7dPH44PtXA-34" style="edgeStyle=orthogonalEdgeStyle;rounded=0;orthogonalLoop=1;jettySize=auto;html=1;exitX=0.5;exitY=1;exitDx=0;exitDy=0;entryX=0.5;entryY=0;entryDx=0;entryDy=0;endArrow=none;startFill=0;" edge="1" parent="1" source="Jf4zM0eVsd7dPH44PtXA-17" target="Ldo9_z_D3-BIF1nlgRQ--81">
          <mxGeometry relative="1" as="geometry" />
        </mxCell>
        <mxCell id="Jf4zM0eVsd7dPH44PtXA-17" value="" style="ellipse;whiteSpace=wrap;html=1;aspect=fixed;fillColor=#ffe6cc;strokeColor=#d79b00;" vertex="1" parent="1">
          <mxGeometry x="855" y="522.5" width="65" height="65" as="geometry" />
        </mxCell>
        <mxCell id="Jf4zM0eVsd7dPH44PtXA-33" style="edgeStyle=orthogonalEdgeStyle;rounded=0;orthogonalLoop=1;jettySize=auto;html=1;exitX=0.5;exitY=1;exitDx=0;exitDy=0;endArrow=none;startFill=0;" edge="1" parent="1" source="Jf4zM0eVsd7dPH44PtXA-18" target="Ldo9_z_D3-BIF1nlgRQ--81">
          <mxGeometry relative="1" as="geometry" />
        </mxCell>
        <mxCell id="Jf4zM0eVsd7dPH44PtXA-18" value="" style="ellipse;whiteSpace=wrap;html=1;aspect=fixed;fillColor=#ffe6cc;strokeColor=#d79b00;" vertex="1" parent="1">
          <mxGeometry x="730" y="525" width="65" height="65" as="geometry" />
        </mxCell>
        <mxCell id="Jf4zM0eVsd7dPH44PtXA-36" style="edgeStyle=orthogonalEdgeStyle;rounded=0;orthogonalLoop=1;jettySize=auto;html=1;exitX=0.5;exitY=1;exitDx=0;exitDy=0;endArrow=none;startFill=0;" edge="1" parent="1" source="Jf4zM0eVsd7dPH44PtXA-19" target="Ldo9_z_D3-BIF1nlgRQ--81">
          <mxGeometry relative="1" as="geometry" />
        </mxCell>
        <mxCell id="Jf4zM0eVsd7dPH44PtXA-19" value="" style="ellipse;whiteSpace=wrap;html=1;aspect=fixed;fillColor=#ffe6cc;strokeColor=#d79b00;" vertex="1" parent="1">
          <mxGeometry x="1061" y="525" width="65" height="65" as="geometry" />
        </mxCell>
        <mxCell id="Jf4zM0eVsd7dPH44PtXA-35" style="edgeStyle=orthogonalEdgeStyle;rounded=0;orthogonalLoop=1;jettySize=auto;html=1;exitX=0.5;exitY=1;exitDx=0;exitDy=0;endArrow=none;startFill=0;" edge="1" parent="1" source="Jf4zM0eVsd7dPH44PtXA-20" target="Ldo9_z_D3-BIF1nlgRQ--81">
          <mxGeometry relative="1" as="geometry" />
        </mxCell>
        <mxCell id="Jf4zM0eVsd7dPH44PtXA-20" value="" style="ellipse;whiteSpace=wrap;html=1;aspect=fixed;fillColor=#ffe6cc;strokeColor=#d79b00;" vertex="1" parent="1">
          <mxGeometry x="930" y="525" width="65" height="65" as="geometry" />
        </mxCell>
        <mxCell id="Jf4zM0eVsd7dPH44PtXA-38" style="edgeStyle=orthogonalEdgeStyle;rounded=0;orthogonalLoop=1;jettySize=auto;html=1;exitX=0.5;exitY=1;exitDx=0;exitDy=0;endArrow=none;startFill=0;" edge="1" parent="1" source="Jf4zM0eVsd7dPH44PtXA-21" target="Ldo9_z_D3-BIF1nlgRQ--81">
          <mxGeometry relative="1" as="geometry" />
        </mxCell>
        <mxCell id="Jf4zM0eVsd7dPH44PtXA-21" value="" style="ellipse;whiteSpace=wrap;html=1;aspect=fixed;fillColor=#ffe6cc;strokeColor=#d79b00;" vertex="1" parent="1">
          <mxGeometry x="1270" y="525" width="65" height="65" as="geometry" />
        </mxCell>
        <mxCell id="Jf4zM0eVsd7dPH44PtXA-37" style="edgeStyle=orthogonalEdgeStyle;rounded=0;orthogonalLoop=1;jettySize=auto;html=1;exitX=0.5;exitY=1;exitDx=0;exitDy=0;endArrow=none;startFill=0;" edge="1" parent="1" source="Jf4zM0eVsd7dPH44PtXA-22" target="Ldo9_z_D3-BIF1nlgRQ--81">
          <mxGeometry relative="1" as="geometry" />
        </mxCell>
        <mxCell id="Jf4zM0eVsd7dPH44PtXA-22" value="" style="ellipse;whiteSpace=wrap;html=1;aspect=fixed;fillColor=#ffe6cc;strokeColor=#d79b00;" vertex="1" parent="1">
          <mxGeometry x="1150" y="525" width="65" height="65" as="geometry" />
        </mxCell>
        <mxCell id="Jf4zM0eVsd7dPH44PtXA-40" style="edgeStyle=orthogonalEdgeStyle;rounded=0;orthogonalLoop=1;jettySize=auto;html=1;exitX=0.5;exitY=1;exitDx=0;exitDy=0;entryX=0.5;entryY=0;entryDx=0;entryDy=0;endArrow=none;startFill=0;" edge="1" parent="1" source="Jf4zM0eVsd7dPH44PtXA-23" target="Ldo9_z_D3-BIF1nlgRQ--81">
          <mxGeometry relative="1" as="geometry" />
        </mxCell>
        <mxCell id="Jf4zM0eVsd7dPH44PtXA-23" value="" style="ellipse;whiteSpace=wrap;html=1;aspect=fixed;fillColor=#ffe6cc;strokeColor=#d79b00;" vertex="1" parent="1">
          <mxGeometry x="1460" y="525" width="65" height="65" as="geometry" />
        </mxCell>
        <mxCell id="Jf4zM0eVsd7dPH44PtXA-39" style="edgeStyle=orthogonalEdgeStyle;rounded=0;orthogonalLoop=1;jettySize=auto;html=1;exitX=0.5;exitY=1;exitDx=0;exitDy=0;endArrow=none;startFill=0;" edge="1" parent="1" source="Jf4zM0eVsd7dPH44PtXA-24">
          <mxGeometry relative="1" as="geometry">
            <mxPoint x="720" y="720" as="targetPoint" />
          </mxGeometry>
        </mxCell>
        <mxCell id="Jf4zM0eVsd7dPH44PtXA-24" value="" style="ellipse;whiteSpace=wrap;html=1;aspect=fixed;fillColor=#ffe6cc;strokeColor=#d79b00;" vertex="1" parent="1">
          <mxGeometry x="1350" y="525" width="65" height="65" as="geometry" />
        </mxCell>
      </root>
    </mxGraphModel>
  </diagram>
</mxfile>
